# xmcd CD database file
# Copyright (C) 1995-1998 Ti Kan
#
# Track frame offsets:
#	150
#	14247
#	34280
#	49515
#	67162
#	81827
#	102525
#	117322
#	136245
#	153005
#	170777
#
# Disc length: 2451 seconds
#
# Revision: 1
# Processed by: cddbd v1.4PL0 Copyright (c) Steve Scherf et al.
# Submitted via: CDex 1.30Release
#
DISCID=9a09910b
DTITLE=Oak Ridge Boys - Voices
DYEAR=1999
DGENRE=Country
TTITLE0=Baby When Your Heart Breaks Down
TTITLE1=Where the Sun Always Shines
TTITLE2=Deep in Louisiana
TTITLE3=Lady My Love
TTITLE4=What'll I Do
TTITLE5=New Orleans
TTITLE6=The Perfect Love
TTITLE7=I'd Still be Waiting
TTITLE8=Old hearts
TTITLE9=Ain't no Short Way Home
TTITLE10=If All I Had Left
EXTD=YEAR: 1999 ID3G:   2
EXTT0=
EXTT1=
EXTT2=
EXTT3=
EXTT4=
EXTT5=
EXTT6=
EXTT7=
EXTT8=
EXTT9=
EXTT10=
PLAYORDER=
